Patient4_TMGait_0pt4_02_right_18_EMG.mot
version=1
nRows=16
nColumns=33
inDegrees=no
endheader
time	1LAddLong	2LGlutMax	3LGlutMed	4LIliopsoas	5LSemiMemb	6LBicFemLong	7LRecFem	8LVastMed	9LVastLat	10LGasMed	11LTibAnt	12lTibPost	13LPeroneusLong	14LSol	15LExtDigLong	16LFlexDigLong	17RAddLong	18RGlutMax	19RGlutMed	20RIliopsoas	21RSemiMemb	22RBicFemLong	23RRecFem	24RVastMed	25RVastLat	26RGasMed	27RTibAnt	28RTibPost	29RPeroneusLong	30RSol	31RExtDigLong	32RFlexDigLong
23.43	0.016937	0.029755	0.12833	0.009766	0.026855	-0.012665	-0.087128	0.010223	0.000763	0.80765	-0.010681	0.23025	0.14862	0.036621	0.011597	-0.67154	0.002594	-0.042572	-0.18417	-0.037079	-0.1001	-0.013123	-0.02121	-0.056152	0.009155	0.00885	-0.32501	-0.005646	0.14847	0.017548	0.010071	0.026703
23.431	0.005493	0.050201	0.11475	0.007629	0.029297	-0.021057	-0.040131	0.007629	-0.029297	0.33646	-0.049286	0.027313	0.12955	0.65887	0.017853	0.075989	-0.005798	0.032349	0.39993	-0.019684	-0.11505	-0.024872	-0.009308	-0.043793	0.02182	0.007629	-0.092316	-0.001984	0.1738	0.005951	-0.002899	0.06073
23.432	0.006866	0.026093	0.11231	0.01358	0.027924	-0.027008	0.006256	0.00824	-0.024109	0.11597	-0.007019	-0.11765	-0.17685	0.35629	0.02121	0.39642	-0.00885	-0.049744	0.64407	-0.038757	-0.1355	0.014954	-0.005951	-0.077362	-0.023804	0.001221	0.020752	0.000153	0.10574	0.023956	0.001831	0.070343
23.433	0.005188	0.003662	0.098419	0.014801	0.034485	-0.017395	0.003967	0.012817	-0.070496	-0.21332	-0.015564	0.077972	-0.26977	-0.32333	0.071259	-0.31189	0.00351	-0.11902	0.14648	-0.098114	-0.1384	0.063629	-0.015106	-0.041962	0.001221	0.004578	0.14038	0.007629	0.037231	0.028839	-0.000458	0.076904
23.434	-0.005188	0.015564	0.084076	0.018311	0.029602	-0.01358	-0.028534	0.019989	-0.013733	0.027466	-0.034027	-0.010681	-0.29648	-0.82535	0.047913	0.070648	-0.014038	-0.13107	-0.33569	-0.26382	0.028839	0.094757	0.03006	0.013275	-0.002594	0.003815	0.15274	-0.000153	0.010681	0.033264	0.000916	0.082855
23.435	0.010376	0.058594	0.061646	0.015106	0.030518	-0.031281	-0.04837	0.018921	0.097046	0.15701	-0.008392	-0.07309	-0.16724	-0.88379	0	0.054169	-0.012665	-0.052032	-0.10956	-0.32105	0.090179	0.10468	0.010834	-0.023956	-0.008698	0.002594	0.15274	-0.005951	-0.010376	0.01709	-0.000916	0.095978
23.436	0.009918	0.029449	0.001068	0.013275	0.035553	-0.018616	-0.0383	0.01297	0.16266	-0.35278	0.035706	-0.022888	0.10895	-0.73395	0.008545	0.25681	0.00351	0.005798	-0.59021	-0.30136	0.036469	0.13794	-0.024719	-0.032959	-0.006104	0.001984	0.28183	-0.004425	-0.003662	0.043182	0.001526	0.094757
23.437	0.008545	0.046539	0.005798	0.024109	0.033875	-0.031738	0.010681	-0.009766	0.26627	-0.53451	0.061951	0.025787	0.18326	0.27206	0.023499	0.23056	0.003357	0.075226	0.22079	-0.15762	-0.014038	0.15854	0.027008	-0.035248	-0.010986	-0.000153	0.46341	-0.00412	-0.018463	0.076141	-0.001984	0.094604
23.438	0.006714	0.022583	0.011139	0.023041	0.029144	-0.049744	-0.033569	-0.018311	0.27908	0.17914	-0.003662	-0.041351	0.23422	0.27908	-0.046539	-0.26169	-0.008698	0.095978	0.55344	0.16693	-0.007782	0.16693	-0.031433	-0.009308	-0.010223	0.001068	0.3952	0	0.049438	0.057526	-0.001068	0.095825
23.439	-0.002899	-0.006256	-0.00061	0.006256	0.027771	-0.018005	-0.11047	-0.001984	0.21149	0.025177	-0.034485	-0.14358	0.14832	0.039673	-0.024109	-0.12466	-0.006256	0.015564	0.19882	0.58853	0.036774	0.17044	-0.016174	-0.017395	-0.010986	-0.001678	0.4808	-0.000916	0.061951	0.040131	0.000305	0.091248
23.44	0.003967	-0.005798	-0.0383	0.005188	0.032501	-0.002747	-0.072327	-0.001678	-0.069733	-0.59464	-0.030975	0.048218	0.077209	-0.24628	0.018005	0.031281	-0.017548	-0.06897	-0.46295	0.47257	0.004578	0.13351	-0.022736	0.001831	-0.001068	-0.003357	0.12772	0.000305	0.094299	0.03067	-0.007477	0.092163
23.441	0.002136	0.023956	0.010071	0.000305	0.036469	-0.019226	0.046844	-0.002441	-0.28793	-0.35278	0.02243	-0.001984	0.04364	0.021515	0.010071	-0.034332	-0.019073	-0.018616	0.11612	0.000153	0.005035	0.13855	-0.000763	0.002289	0.004425	-0.004883	-0.90607	-0.003815	0.17563	0.018616	-0.000916	0.091858
23.442	0.002899	0.024567	0.037537	-0.020752	0.029602	-0.013428	0.11124	0.009308	-0.3122	-0.27039	0.15762	0.006866	0.035095	0.33112	0.088654	-0.5629	-0.00351	-0.022736	0.15518	-0.15915	-0.039368	0.16922	-0.027771	-0.044708	-0.007019	-0.009613	-0.6395	-0.007324	0.1265	0.04425	-0.002594	0.08316
23.443	0.005188	0.060577	0.05661	0.004425	0.027313	-0.024719	0.14175	-0.002594	-0.19623	-0.36896	0.1532	-0.030518	0.082245	0.3569	1.171	0.78064	0.014343	-0.011444	0.52643	-0.15198	-0.15167	0.1593	-0.011292	-0.034637	-0.001526	-0.017395	-0.24887	-0.004425	0.084076	0.031586	-0.001984	0.085602
23.444	0.001984	0.044403	0.056915	0.006866	0.031281	-0.029907	0.12802	-0.00473	-0.019836	-0.37857	0.10849	-0.049744	0.03479	0.13428	0.33875	0.02594	0.02655	-0.024109	0.81986	0.13077	-0.25925	0.16327	-0.010071	-0.040741	-0.007172	-0.011292	-0.11597	-0.00473	0.050659	0.039368	-0.000458	0.086517
23.445	0.006561	0.009613	0.008087	0.02594	0.030365	-0.020905	0.13901	-0.003662	-0.03418	-0.34759	-0.18829	0.021057	-0.032654	0.10681	0.14587	0.34241	0.012512	-0.04837	0.3125	0.60501	-0.18845	0.17654	-0.040588	-0.041962	-0.013428	-0.015564	-0.11963	0.002747	0.025787	0.031128	-0.001831	0.075989
